Coordinates
version=1
nRows=22
nColumns=24
inDegrees=yes

Units are S.I. units (second, meters, Newtons, ...)
Angles are in degrees.

endheader
time	pelvis_tilt	pelvis_list	pelvis_rotation	pelvis_tx	pelvis_ty	pelvis_tz	hip_flexion_r	hip_adduction_r	hip_rotation_r	knee_angle_r	ankle_angle_r	subtalar_angle_r	mtp_angle_r	hip_flexion_l	hip_adduction_l	hip_rotation_l	knee_angle_l	ankle_angle_l	subtalar_angle_l	mtp_angle_l	lumbar_extension	lumbar_bending	lumbar_rotation
      0.83733333	      3.69934564	      0.73008913	      2.29693438	     -0.17772533	      1.05873487	      0.29496590	    -17.97928883	      2.30182540	     -3.91302821	     -8.11188464	     18.77367126	      0.93502486	      4.46071077	     20.05790439	      0.74058321	      0.72737023	     -5.21898112	      4.64652472	      7.14964254	      5.36229594	    -16.70978120	      2.50353310	      0.66406721
      0.84150000	      3.73149087	      0.79624685	      2.26985643	     -0.17193722	      1.05785329	      0.29460745	    -18.15511192	      2.19505080	     -4.04731559	     -8.55404272	     19.02137244	      1.23762312	      4.45203075	     20.11457594	      0.91077076	      0.98965404	     -5.71542907	      4.48593320	      6.92247362	      5.40975302	    -16.70434753	      2.36192438	      0.63067084
      0.84566667	      3.76980472	      0.85648279	      2.22705789	     -0.16613136	      1.05703806	      0.29431676	    -18.34504401	      2.10250902	     -4.03911717	     -8.97643352	     19.13853241	      1.21853693	      4.45391838	     20.18264065	      1.06060421	      1.16317311	     -6.30536189	      4.34531150	      6.82767894	      5.42593336	    -16.69186274	      2.20944744	      0.61832364
      0.84983333	      3.76744549	      0.93056822	      2.19020904	     -0.16027064	      1.05619257	      0.29395822	    -18.46039304	      1.97859053	     -4.16042637	     -9.47207639	     19.33218960	      1.50573946	      4.47473486	     20.27943096	      1.23805795	      1.44068753	     -6.91596393	      4.10684889	      6.52762083	      5.49255189	    -16.63151082	      2.04887009	      0.59977717
      0.85400000	      3.79577359	      1.00736001	      2.14250392	     -0.15440813	      1.05545608	      0.29365464	    -18.61136981	      1.85895750	     -4.17952593	     -9.96054955	     19.45009053	      1.58149946	      4.50127250	     20.35351074	      1.40659764	      1.65894957	     -7.59250353	      3.89369543	      6.33129099	      5.54220804	    -16.61458571	      1.86159588	      0.58517596
      0.85816667	      3.80049398	      1.08635712	      2.09327772	     -0.14849546	      1.05473336	      0.29331284	    -18.72007000	      1.72634607	     -4.24671014	    -10.48600941	     19.53764630	      1.73943425	      4.55022535	     20.45415307	      1.57994856	      1.87900648	     -8.31169437	      3.62135412	      6.05889129	      5.60189444	    -16.54840744	      1.68367681	      0.58100040
      0.86233333	      3.79679381	      1.16469856	      2.04219302	     -0.14255589	      1.05404636	      0.29297398	    -18.80854576	      1.59277552	     -4.29374433	    -11.03564537	     19.58609066	      1.86705191	      4.61565309	     20.56792677	      1.75030987	      2.09507604	     -9.07394252	      3.34196081	      5.78312832	      5.65898797	    -16.47565312	      1.50413507	      0.57605792
      0.86650000	      3.84004875	      1.23748804	      1.98656149	     -0.13662762	      1.05349901	      0.29264443	    -18.95578961	      1.47009178	     -4.26162353	    -11.55637915	     19.51875848	      1.85838206	      4.63473413	     20.65270101	      1.90231088	      2.21023873	     -9.90716066	      3.08802772	      5.63615765	      5.66872309	    -16.47570899	      1.35044083	      0.56884768
      0.87066667	      3.76943437	      1.30716438	      1.93191107	     -0.13060590	      1.05281124	      0.29225296	    -18.91823842	      1.32322571	     -4.38344181	    -12.22440789	     19.56657617	      2.13402154	      4.75281004	     20.82756871	      2.06920339	      2.49592101	    -10.70302339	      2.75923354	      5.20279834	      5.71998645	    -16.29001481	      1.15551497	      0.58978581
      0.87483333	      3.80387644	      1.39442959	      1.87243265	     -0.12462333	      1.05237288	      0.29186615	    -19.00405797	      1.16251265	     -4.45318558	    -12.85493439	     19.44916025	      2.27257411	      6.66383291	     20.88374062	      2.24618136	      2.74197186	    -11.50465761	      2.40815904	      4.74730295	      6.40749769	    -16.25618963	      0.97737514	      0.53297320
      0.87900000	      3.77751071	      1.46744565	      1.80555266	     -0.11857569	      1.05188032	      0.29148102	    -18.99562117	      1.00585683	     -4.52203383	    -13.55086274	     19.35033678	      2.44386836	      6.70906800	     21.02744959	      2.39499674	      2.87571233	    -12.37418161	      2.14440268	      4.51721175	      6.40043222	    -16.13943288	      0.78372151	      0.59633077
      0.88316667	      3.76396435	      1.53720511	      1.73866843	     -0.11252815	      1.05147526	      0.29106674	    -18.98232963	      0.84570911	     -4.59961801	    -14.27911768	     19.20403035	      2.64530985	      6.79393237	     21.14713831	      2.54271225	      3.04161696	    -13.23687658	      1.87684273	      4.19458889	      6.38522375	    -16.03987206	      0.60952448	      0.61821581
      0.88733333	      3.76205244	      1.61340114	      1.66725783	     -0.10645958	      1.05115412	      0.29064258	    -18.95821204	      0.66903908	     -4.69946076	    -15.05282414	     19.02395639	      2.87841602	      6.93374519	     21.24209139	      2.69336562	      3.19926352	    -14.08985513	      1.61720766	      3.85459014	      6.35912590	    -15.95082816	      0.42379799	      0.64116905
      0.89150000	      3.75045048	      1.68466700	      1.59056636	     -0.10035941	      1.05089104	      0.29021077	    -18.90254655	      0.48875163	     -4.79264947	    -15.86497020	     18.77688982	      3.10704679	      7.10647522	     21.33773673	      2.83331695	      3.33432938	    -14.93501041	      1.39012531	      3.54495162	      6.32444921	    -15.84812393	      0.24190412	      0.66265394
      0.89566667	      3.83214033	      1.78218626	      1.49623217	     -0.09432266	      1.05083799	      0.28976932	    -18.90864357	      0.26079387	     -4.94454971	    -16.74890445	     18.55774452	      3.45361938	      7.93022775	     21.30226139	      2.99745735	      3.48554143	    -15.72531429	      1.17418690	      3.12052366	      6.16389053	    -15.88269310	      0.04375089	      0.66152622
      0.89983333	      3.77033385	      1.82489264	      1.43399811	     -0.08815180	      1.05062999	      0.28928854	    -18.75701688	      0.10184647	     -5.03504887	    -17.63016035	     18.13127054	      3.60765023	      8.12365529	     21.44303186	      3.10142408	      3.56896818	    -16.57071093	      1.02561864	      2.96956871	      6.12173669	    -15.69621771	     -0.11015380	      0.71408282
      0.90400000	      3.80126095	      1.90004878	      1.35199777	     -0.08205839	      1.05063567	      0.28878648	    -18.65767484	     -0.11775870	     -5.19992351	    -18.59462668	     17.68849309	      3.83558723	     12.09284452	     21.44009412	      3.24293955	      3.70516533	    -17.33395612	      0.89595618	      2.62179100	      5.27977327	    -15.64832889	     -0.27672001	      0.71558702
      0.90816667	      3.81413281	      1.95735502	      1.26082434	     -0.07592607	      1.05067219	      0.28831445	    -18.51567648	     -0.32654347	     -5.33848885	    -19.59965522	     17.21815323	      4.15269673	     12.14920711	     21.45615468	      3.34364309	      3.71963446	    -18.10128022	      0.82718419	      2.50350479	      5.26542026	    -15.57163331	     -0.44973648	      0.77539133
      0.91233333	      3.86178730	      2.04038030	      1.15137267	     -0.06982880	      1.05084212	      0.28782163	    -18.35861110	     -0.58978602	     -5.53748401	    -20.70605388	     16.80116788	      4.56293940	     12.52692241	     21.38835976	      3.47613992	      3.77972902	    -18.78141407	      0.76383894	      2.21776510	      5.17414436	    -15.54607693	     -0.62857553	      0.82730732
      0.91650000	      3.84553622	      2.09110748	      1.07569208	     -0.06369960	      1.05096137	      0.28727222	    -18.11158271	     -0.81559904	     -5.73992919	    -21.84274992	     16.26385242	      4.89130631	     12.76074738	     21.39293779	      3.57765706	      3.81411019	    -19.46960369	      0.74065028	      2.08708504	      5.12015163	    -15.42828930	     -0.77365923	      0.87586334
      0.92066667	      3.89577809	      2.15301272	      0.98593446	     -0.05761592	      1.05126474	      0.28673873	    -17.91027990	     -1.06594457	     -5.93187638	    -23.00117534	     15.56373068	      5.17905448	     16.23888023	     21.28172892	      3.68959642	      3.86999395	    -20.07257421	      0.76246219	      1.88646703	      4.33246839	    -15.39942965	     -0.92918108	      0.89369356
      0.92483333	      3.93341180	      2.22465580	      0.89019371	     -0.05152458	      1.05161236	      0.28621713	    -17.65260118	     -1.34332751	     -6.15064395	    -24.24423636	     14.92500554	      5.55776710	     16.30714791	     21.16178645	      3.80025890	      3.86356368	    -20.63480306	      0.82578339	      1.78617396	      4.31746279	    -15.35248828	     -1.10332438	      0.94009146
